<svg xmlns="http://www.w3.org/2000/svg" aria-hidden="true" style="position:absolute;width:0;height:0;overflow:hidden">
  <defs>
    <symbol id="zoom-in" viewBox="0 0 32 32">
      <path d="M5.2 28.667 3.333 26.8l4.133-4.133H3.999V20h8v8H9.332v-3.467l-4.133 4.133zm21.6 0-4.133-4.133v3.467H20v-8h8v2.667h-3.467l4.133 4.133-1.867 1.867zM4 12V9.333h3.467L3.334 5.2l1.867-1.867 4.133 4.133V3.999h2.667v8h-8zm16 0V4h2.667v3.467L26.8 3.334l1.867 1.867-4.133 4.133h3.467v2.667h-8z"/>
    </symbol>
    <symbol id="zoom-out" viewBox="0 0 32 32">
      <path d="M4 28v-8h2.667v3.467l4.133-4.133 1.867 1.867-4.133 4.133h3.467v2.667h-8zm16 0v-2.667h3.467L19.334 21.2l1.867-1.867 4.133 4.133v-3.467h2.667v8h-8zm-9.2-15.333L6.667 8.534v3.467H4v-8h8v2.667H8.533l4.133 4.133-1.867 1.867zm10.4 0L19.333 10.8l4.133-4.133h-3.467V4h8v8h-2.667V8.533l-4.133 4.133z"/>
    </symbol>
    <symbol id="menu" viewBox="0 0 32 32">
      <path fill="none" stroke="#fff" stroke-linecap="round" stroke-linejoin="round" stroke-width="3.667" d="M19.667 21.5a1.833 1.833 0 1 0 3.666 0 1.833 1.833 0 0 0-3.666 0zM8.667 21.5a1.833 1.833 0 1 0 3.666 0 1.833 1.833 0 0 0-3.666 0zM19.667 10.5a1.833 1.833 0 1 0 3.666 0 1.833 1.833 0 0 0-3.666 0zM8.667 10.5a1.833 1.833 0 1 0 3.666 0 1.833 1.833 0 0 0-3.666 0z" style="stroke:var(--color1, #fff)"/>
    </symbol>
    <symbol id="marker" viewBox="0 0 32 32">
      <path fill="#fbbd17" d="M8.194.219H.303V8.11a7.893 7.893 0 0 0 6.888 7.828A7.892 7.892 0 0 0 .19 23.779v7.891h7.891a7.893 7.893 0 0 0 7.828-6.888 7.892 7.892 0 0 0 7.841 7.001h7.891v-7.891a7.893 7.893 0 0 0-6.888-7.828 7.892 7.892 0 0 0 7.001-7.841V.332h-7.891a7.893 7.893 0 0 0-7.828 6.888A7.892 7.892 0 0 0 8.194.219z" style="fill:var(--color1, #fbbd17)"/>
    </symbol>
    <symbol id="chevron-right" viewBox="0 0 32 32">
      <path fill="#fff" d="M16.505 16.176 9.661 9.332l2.756-2.756 9.6 9.6-9.6 9.6-2.756-2.756 6.844-6.844z" style="fill:var(--color1, #fff)"/>
    </symbol>
    <symbol id="life-quote" viewBox="0 0 120 32">
      <path fill="#fff" d="M67.97 20.099c-1.107-.334-1.169-1.392-.884-2.309-1.298.783-3.024 1.753-4.602 1.562-1.201-.256-1.249-1.424-.778-2.306.382-.803 1.272-1.878 2.285-1.446a.787.787 0 0 1 .415.578.787.787 0 0 1-.216.677.31.31 0 0 1-.364-.012c-.054-.039-.093-.095-.11-.16s-.011-.133.016-.194c.022-.038.032-.082.028-.126s-.021-.086-.049-.12c-.617-.203-1.335 1.31-1.318 1.814.026.803 1.645.198 2.105.07a13.354 13.354 0 0 0 2.962-1.601c.526-1.384 1.351-4.136 2.703-4.812a.853.853 0 0 1 1.196.419c.061.148.079.31.052.467a3.353 3.353 0 0 1-.493 1.424 9.521 9.521 0 0 1-2.783 3.019c-.001.043-.027.086-.038.124a1.611 1.611 0 0 1 1.214-.276 1.44 1.44 0 0 1 1.14.936 1.574 1.574 0 0 1-.41 1.657 2.375 2.375 0 0 1-2.069.618zm.5-.631a1.547 1.547 0 0 0 1.272-.707.888.888 0 0 0-.129-.864 1.006 1.006 0 0 0-.708-.22c-.351.017-.687.457-1.029.211-.168.59-.354 1.563.586 1.579h.01zm.127-3.836a7.305 7.305 0 0 0 1.946-2.537c.387-.947-.035-.961-.596-.265a11.96 11.96 0 0 0-1.355 2.807l.005-.005zM71.953 17.519c-.425-.201-.222-.833.202-.881.484-.118.818.507.326.731a.412.412 0 0 1-.528.151zM76.108 30.492c-.729-.024-1.146-.484-.97-1.15a3.793 3.793 0 0 1 1.375-1.956 10.12 10.12 0 0 1 2.376-1.448c.849-.419 1.703-.827 2.538-1.265.408-.731.772-1.415 1.198-2.111-.637.387-2.016.86-2.196-.212a3.39 3.39 0 0 1 .379-1.293c-.456.292-1.367.992-1.848.419a.838.838 0 0 1-.05-.664 2.136 2.136 0 0 0-.041-1.091c-.262-.21-1.336.916-1.54 1.12a2.188 2.188 0 0 0-.431.567.386.386 0 0 1-.329.167.378.378 0 0 1-.318-.188c-.109-.186.046-.387.072-.569s.45-1.838-.081-1.611c-.533.26-1.028.59-1.472.983-.287.245-.474.536-.742.796a.375.375 0 0 1-.391.051.367.367 0 0 1-.215-.33c.068-.292.164-.576.287-.85a2.626 2.626 0 0 1-1.727.677c-1.333-.188-1.088-1.346-.462-2.127a.275.275 0 0 1 .476.15c.035.38-.25.741-.128 1.109.518.296 1.195-.292 1.607-.566.279-.173.497-.507.816-.573.532.018.49.559.363.914a4.687 4.687 0 0 1 1.686-.904c.807-.021.958.925.861 1.531a4.67 4.67 0 0 1 1.318-.96c1.188-.359 1.19 1.172 1.055 1.917a6.255 6.255 0 0 0 1.592-.97c.167-.134.339-.387.59-.273.42.23 0 .715-.091 1.024a6.153 6.153 0 0 0-.477 1.492c.564.067 1.08-.291 1.544-.539.297-.181.577-.389.837-.62.223-.328.467-.641.732-.936.226-.295.767-.272.695.177a2.732 2.732 0 0 1-.651.828 28.626 28.626 0 0 0-1.732 2.871 40.679 40.679 0 0 1 3.531-1.549l.875-.336a.251.251 0 0 1 .313.126.223.223 0 0 1 0 .176.232.232 0 0 1-.125.123c-.488.233-1.018.446-1.539.674a46.082 46.082 0 0 0-3.545 1.683c-.917 1.607-1.674 3.305-2.883 4.748-.762.829-2.065.892-3.165.774l.034-.004zm.591-.461c1.475-.023 1.995-.529 2.657-1.66.573-.941 1.045-1.833 1.57-2.775-1.31.71-2.791 1.213-3.954 2.125-.641.526-1.481 1.238-1.347 2.111.24.286.728.187 1.074.199zM77.064 17.827c-.234-.046-.995.049-1.024-.235-.005-.039.004-.079.026-.112s.053-.058.091-.071a6.82 6.82 0 0 1 1.855-.049l1.347.045c.235.008.641-.065.649.266 0 .033-.007.066-.021.096s-.032.058-.056.081a.25.25 0 0 1-.18.069c-.898.018-1.79-.021-2.685-.089zM98.753 26.512c-.869-.427-.274-1.3-.319-1.974a3.621 3.621 0 0 0-1.464.72c-.156.225-.272.524-.549.64a.392.392 0 0 1-.474-.179c-.166-.346.235-.592.398-.856s.35-.574-.137-.36c-.801.569-2.777 1.828-3.122.218-.82.554-2.279 1.398-3.224.681a.58.58 0 0 1-.2-.486c.018-.556.896-.686.768-.013 1.001.076 2.04-.729 2.76-1.315.139-.096.255-.221.338-.368.206-.379.453-.735.736-1.061.214-.238.565-.529.898-.316s.169.706-.084.957a12.07 12.07 0 0 1-.957 1.053 2.05 2.05 0 0 0-.184.786c.026.217.514-.026.645-.06a8.953 8.953 0 0 0 2.246-1.433c.25-.169.443-.465.739-.561a.356.356 0 0 1 .406.205.73.73 0 0 1-.018.532 6.876 6.876 0 0 1-.343.8c.393-.141.892-.398 1.276-.116a2.715 2.715 0 0 1 1.804-1.001c.673-.04 1.496.342 1.404 1.078-.139 1.301-1.885 2.995-3.344 2.429zm.582-.638a2.24 2.24 0 0 0 1.916-1.909c-.03-.111-.203-.107-.298-.144a1.078 1.078 0 0 0-.538.025c-.488.216-.921.54-1.265.947-.009.264-.07.526-.108.788s.067.3.293.293zM101.966 27.194c-1.209-.17-.383-1.189.056-1.693.346-.434.726-.84 1.135-1.215-.481-.976.146-1.963 1.043-2.5a8.341 8.341 0 0 1 3.055-.941c.76-.13 1.513-.303 2.254-.516.627-.224 1.248-.439 1.862-.721a.32.32 0 0 1 .362.113.327.327 0 0 1 .01.379 8.454 8.454 0 0 1-1.684.852 27.445 27.445 0 0 1-3.739 1c-.79.214-2.425.755-2.271 1.744.114.484.669.829.521 1.376-.226 1.039-1.407 2.19-2.605 2.122zm.261-.802a2.02 2.02 0 0 0 1.172-.883.953.953 0 0 0 .206-.584c-.073-.117-.18-.217-.253-.33-.389.587-.783 1.179-1.125 1.796z" style="fill:var(--color1, #fff)"/>
      <path fill="#fff" d="M108.266 28.286c-.3-.653.16-1.353.387-1.97s.551-1.268.869-1.891c-.668.16-1.344.282-2.024.38.596 1.138-.565 2.569-1.833 2.738a1.013 1.013 0 0 1-.826-.2 1.009 1.009 0 0 1-.386-.757 2.735 2.735 0 0 1 1.297-2.064c.051-.382.527-.4.845-.452l1.008-.135a21.104 21.104 0 0 0 2.454-.48 6.657 6.657 0 0 1 1.347-1.818c.397-.34.874-.574 1.386-.679.962-.055 1.198.918.687 1.568-.677.89-1.824 1.303-2.886 1.642-.093.179-.185.359-.282.538l-.185.373a1.607 1.607 0 0 1 1.564 1.045 1.797 1.797 0 0 1-.341 1.463c-.573.783-2.34 1.8-3.081.7zm1.053-.186a2.11 2.11 0 0 0 1.617-1.133c.163-.431.145-.763-.292-1.022-.26-.133-.593-.058-.833-.2-.259.577-.518 1.154-.754 1.742-.101.299-.238.659.287.614l-.024-.001zm-3.826-1.303a1.559 1.559 0 0 0 1.115-.765c.124-.255.303-.605.086-.852a1.449 1.449 0 0 0-.475-.155.488.488 0 0 1-.335-.155l-.035.037c-.331.272-1.151 1.858-.355 1.889zm5.72-3.728a5.035 5.035 0 0 0 1.398-.765c.306-.239.665-.938-.053-.563a3.29 3.29 0 0 0-1.345 1.328zM112.581 26.542a.345.345 0 0 1-.177-.211.35.35 0 0 1 .03-.274c.212-.3.414-.605.639-.891a.802.802 0 0 1 .491-.349c.208-.036.392.186.276.359-.215.424-.456.835-.722 1.229a.413.413 0 0 1-.537.135zM116.344 30.631c-1.219-.295-.905-1.667-.433-2.448-.857.057-1.68.35-2.38.848-.195.373-.38.751-.598 1.113a.363.363 0 0 1-.553.152.363.363 0 0 1-.128-.174 1.402 1.402 0 0 1 .143-.979 6.066 6.066 0 0 1 1.034-.926c.249-.429.508-.866.72-1.306-.061-.058-.101-.135-.114-.218s.001-.168.04-.243a.386.386 0 0 1 .423-.199.232.232 0 0 1 .259.01c.037.027.066.064.083.107s.02.09.01.135a.483.483 0 0 1-.242.472c-.158.288-.307.58-.466.868.761-.359 1.626-.383 2.419-.578l-.034-.001a2.314 2.314 0 0 1 1.795-.262 1.432 1.432 0 0 1 .956.795 1.427 1.427 0 0 1-.02 1.242c-.526.943-1.722 1.863-2.914 1.593zm.621-.766a2.216 2.216 0 0 0 1.599-1.33c.061-.833-.933-.813-1.528-.531a4.699 4.699 0 0 0-.589 1.421c-.094.381.128.484.518.44zM15.456 15.585a.423.423 0 0 1-.337-.482c.103-.552.255-1.103.358-1.655.097-.421.171-.847.222-1.278a1.44 1.44 0 0 1 .108-.467c.03-.038.069-.068.114-.086s.093-.025.142-.02a.29.29 0 0 1 .224.162c.04.293.041.589.003.882-.048.57-.121 1.139-.193 1.708-.109.428.018 1.304-.64 1.236z" style="fill:var(--color1, #fff)"/>
      <path fill="#fff" d="M18.204 15.265c-.337-.078-.398-.407-.332-.692s.069-.595.078-.893a9.233 9.233 0 0 0-.014-1.515c-.599.284-1.183.6-1.75.945-.197.127-.395.258-.583.392-.07.048-.151.123-.241.126-.031.003-.063-.003-.091-.016s-.052-.035-.07-.061a.173.173 0 0 1-.007-.178 11.203 11.203 0 0 1 1.676-1.306c.27-.189.543-.367.832-.551.76-.455 1.014.407 1.044.98.057.633.074 1.268.052 1.903-.015.361-.098.957-.594.867zM20.124 15.074c-.838-.509-.405-1.571-.159-2.272a.39.39 0 0 1-.106-.601c.144-.137.296-.266.454-.387a1.563 1.563 0 0 1 1.716-.308c.851.581.664 1.877.239 2.631-.393.658-1.314 1.488-2.142.938zm.552-.68c.824-.262 1.384-1.448.928-2.203a.567.567 0 0 0-.427.078 6.322 6.322 0 0 0-.673.44c-.063.399-.419 1.597.172 1.684zM26.599 15.887c-.405-.379-.116-1.223-.097-1.711a8.1 8.1 0 0 0 .113-1.638c-.268.327-.518.663-.798.982-.148.186-.352.32-.581.383-.52.121-.817-.43-.816-.878-.341.497-.669.998-1.01 1.495-.151.187-.33.618-.639.443a.23.23 0 0 1-.087-.286.22.22 0 0 1 .15-.241c.529-.862.973-1.804 1.549-2.651a.481.481 0 0 1 .591-.06c.309.239.264.667.325 1.001.282-.324.562-.643.864-.947a.872.872 0 0 1 .488-.281c1.162-.125.773 2.301.719 2.958-.04.365-.103.725-.124 1.089-.005.073-.029.143-.069.204s-.095.111-.159.146a.444.444 0 0 1-.418-.007zM36.839 22.54c-1.118-.362-.954-1.836-.523-2.657a5.346 5.346 0 0 1 1.038-1.572c.481-.556.998-1.08 1.549-1.567l.142-.612.235-1.014c-.661.601-2.116 1.909-2.859.717-.24-.646.097-1.337.229-1.971-.768.551-1.485 1.163-2.21 1.764-.039.441-.104.88-.196 1.314a1.752 1.752 0 0 1-.421.966c-.519.5-1.809.35-1.853-.503.049-.786.92-1.358 1.465-1.862l.018-.203c.026-.304.048-.614.075-.923a6.027 6.027 0 0 1-1.872 1.453.859.859 0 0 1-.956-.159.867.867 0 0 1-.207-.947c-.391.436-.839.968-1.474 1.028a.74.74 0 0 1-.768-.75 5.92 5.92 0 0 1 .588-2.267c.038-.087.086-.168.145-.242a.14.14 0 0 1 .162-.031.14.14 0 0 1 .078.145 6.419 6.419 0 0 0-.228 2.286c.892-.601 1.398-1.592 2.061-2.394a.476.476 0 0 1 .757.302c-.068.679-.31 1.342-.348 2.037a10.347 10.347 0 0 0 1.986-1.816c.218-.22.383-.611.775-.54.473.085.49.566.418.939s-.089.787-.121 1.183c.745-.625 1.549-1.183 2.337-1.759a.786.786 0 0 1 .321-.197.374.374 0 0 1 .309.081.384.384 0 0 1 .138.288c-.096.416-.254.823-.338 1.247a3.85 3.85 0 0 0-.165 1.183c.738-.061 1.727-1.078 2.181-1.618.135-.156.264-.313.386-.477s.187-.553.489-.581a.422.422 0 0 1 .361.163c.185.22.043.473-.097.677a20.382 20.382 0 0 0-.532 2.3 17.77 17.77 0 0 1 2.671-1.775c.325-.51.828-.88 1.412-1.037.362-.074.892-.025 1.054.362.144.526-.433.53-.782.656s-.613.267-.914.419a1.884 1.884 0 0 0-.358 1.547 1.286 1.286 0 0 0 .876.473c.188-.002.371-.057.529-.158a14.38 14.38 0 0 0 1.541-1.062c.268-.199.584-.525.966-.323s.27.515.311.786c.465-.054.913-.21 1.312-.455a3.844 3.844 0 0 0 1.198-.92 1.158 1.158 0 0 1-.768-.56 1.155 1.155 0 0 1-.085-.947 2.702 2.702 0 0 1 1.339-1.743 2.325 2.325 0 0 1 1.586-.17 1 1 0 0 1 .758 1.091c-.14.401-.345.776-.607 1.111a.64.64 0 0 1-.091.393c-.213.395-.341.83-.374 1.277.233.399 1.113.085 1.475.011.604-.161 1.211-.316 1.81-.502.494-.157.98-.34 1.465-.523.303-.078.774-.407.988-.013s-.273.454-.488.557c-.467.212-.946.407-1.423.597-.814.304-1.559.545-2.368.787s-2.156.314-2.439-.737a4.905 4.905 0 0 1-1.507 1.173c-.764.409-2.077.997-2.673-.003-.703.507-1.455 1.244-2.383 1.296-1.319-.108-2.243-.947-1.886-2.258-.822.529-1.577 1.113-2.367 1.718-.236 1.255-.482 2.508-.832 3.747-.261 1.107-.634 2.059-2.016 1.774zm.217-.723c.806.113.832-.851 1.026-1.393.227-.809.411-1.628.568-2.454a12.131 12.131 0 0 0-1.409 1.644c-.267.539-.617 1.113-.524 1.735.053.199.107.473.34.468zm-4.281-4.378c.133.001.317.014.391-.116.07-.244.116-.494.138-.746-.28.221-.499.509-.637.838a.289.289 0 0 0 .108.025zm17.137-3.837a.996.996 0 0 0 .89-.504c.281-.363.535-.748.758-1.149-.23-.112-.494.004-.717.056a1.478 1.478 0 0 0-.825.863c-.081.223-.253.478-.167.72l.061.014zM.766 17.422c-.113 0-.224-.033-.32-.094s-.171-.149-.217-.252a.585.585 0 0 1 .094-.632c.64-.503 1.309-.966 2.005-1.388.985-.659 1.971-1.327 2.973-1.976-1.147-.344-.788-1.364-.351-2.125.46-.839 1.534-1.886 2.62-1.684.005-.029.018-.057.038-.079s.046-.038.075-.045c.029-.007.059-.006.088.003s.053.027.071.051a.334.334 0 0 1 .069.252 1.237 1.237 0 0 1 .195 1.286l-.491 2.122a24.542 24.542 0 0 0-.684 2.959.721.721 0 0 1-.346.56.469.469 0 0 1-.52-.136.48.48 0 0 1-.094-.164.783.783 0 0 1 .025-.447l.194-.837c.101-.435.242-.855.371-1.283a164.118 164.118 0 0 0-4.325 2.964c-.307.22-.595.443-.85.611s-.356.346-.619.334zm5.69-5.248c.078-.004.157-.001.234.01s.152.038.218.08c.139-.731.369-1.466.45-2.201-.949.209-1.511 1.147-1.713 2.022.265.068.537.1.811.094l.001-.005z" style="fill:var(--color1, #fff)"/>
    </symbol>
  </defs>
</svg>
